<svg width="1080" height="1350" viewBox="0 0 1080 1350" fill="none" xmlns="http://www.w3.org/2000/svg">
  <rect width="1080" height="1350" fill="#E9E6E0"/>
  <rect x="72" y="72" width="936" height="1206" rx="0" fill="#2F2F2F"/>
  <rect x="72" y="72" width="936" height="190" fill="#B8622D"/>

  <text x="108" y="146" fill="#F7F3EC" font-family="Arial, Helvetica, sans-serif" font-size="36" font-weight="700">
    <tspan x="108" dy="0">This is what the system</tspan>
    <tspan x="108" dy="44">needed to do.</tspan>
  </text>

  <text x="108" y="258" fill="#F7F3EC" font-family="Arial, Helvetica, sans-serif" font-size="18" letter-spacing="2">SYSTEM VIEW / 05</text>

  <text x="108" y="330" fill="#F7F3EC" font-family="Arial, Helvetica, sans-serif" font-size="30" font-weight="700">
    <tspan x="108" dy="0">At the center of the build was a system</tspan>
    <tspan x="108" dy="40">designed to support how B2B buyers</tspan>
    <tspan x="108" dy="40">actually move.</tspan>
  </text>

  <text x="108" y="472" fill="#F7F3EC" font-family="Arial, Helvetica, sans-serif" font-size="21" font-weight="700">That meant building for:</text>

  <text x="126" y="528" fill="#F7F3EC" font-family="Arial, Helvetica, sans-serif" font-size="20" font-weight="700">
    <tspan x="126" dy="0">• product discovery</tspan>
    <tspan x="126" dy="34">• clearer user flow</tspan>
    <tspan x="126" dy="34">• quote-driven buying</tspan>
    <tspan x="126" dy="34">• account-based repeat engagement</tspan>
    <tspan x="126" dy="34">• retention logic</tspan>
    <tspan x="126" dy="34">• technical SEO</tspan>
    <tspan x="126" dy="34">• Instagram and WhatsApp automations</tspan>
    <tspan x="126" dy="34">  that push interested users back to the site.</tspan>
  </text>

  <rect x="606" y="258" width="330" height="220" fill="#3B3B3B" stroke="#F7F3EC" stroke-width="2"/>
  <image href="D:/Personal/RotsiHomepage/public/clients-work/bewama/singleProduct.png" x="618" y="290" width="306" height="176" preserveAspectRatio="xMidYMid slice"/>
  <rect x="606" y="258" width="120" height="28" fill="#B8622D"/>
  <text x="624" y="277" fill="#F7F3EC" font-family="Arial, Helvetica, sans-serif" font-size="14" font-weight="700">PRODUCT PAGE</text>

  <rect x="606" y="504" width="156" height="156" fill="#3B3B3B" stroke="#F7F3EC" stroke-width="2"/>
  <image href="D:/Personal/RotsiHomepage/public/clients-work/bewama/requestQuot.png" x="614" y="534" width="140" height="118" preserveAspectRatio="xMidYMid slice"/>
  <rect x="606" y="504" width="94" height="24" fill="#B8622D"/>
  <text x="618" y="521" fill="#F7F3EC" font-family="Arial, Helvetica, sans-serif" font-size="12" font-weight="700">QUOTE FLOW</text>

  <rect x="780" y="504" width="156" height="156" fill="#3B3B3B" stroke="#F7F3EC" stroke-width="2"/>
  <image href="D:/Personal/RotsiHomepage/public/clients-work/bewama/accountOverview.png" x="788" y="534" width="140" height="118" preserveAspectRatio="xMidYMid slice"/>
  <rect x="780" y="504" width="102" height="24" fill="#B8622D"/>
  <text x="792" y="521" fill="#F7F3EC" font-family="Arial, Helvetica, sans-serif" font-size="12" font-weight="700">ACCOUNT VIEW</text>

  <rect x="606" y="686" width="330" height="120" fill="#3B3B3B" stroke="#F7F3EC" stroke-width="2"/>
  <image href="D:/Personal/RotsiHomepage/public/clients-work/bewama/smartSuggestion.png" x="618" y="714" width="306" height="80" preserveAspectRatio="xMidYMid slice"/>
  <rect x="606" y="686" width="120" height="24" fill="#B8622D"/>
  <text x="620" y="703" fill="#F7F3EC" font-family="Arial, Helvetica, sans-serif" font-size="12" font-weight="700">RETENTION LOGIC</text>

  <line x1="588" y1="286" x2="548" y2="286" stroke="#F7F3EC" stroke-width="2"/>
  <text x="360" y="292" fill="#F7F3EC" font-family="Arial, Helvetica, sans-serif" font-size="16">Clear product evaluation</text>

  <line x1="588" y1="552" x2="548" y2="552" stroke="#F7F3EC" stroke-width="2"/>
  <text x="366" y="558" fill="#F7F3EC" font-family="Arial, Helvetica, sans-serif" font-size="16">Quote-led buying flow</text>

  <line x1="954" y1="552" x2="994" y2="552" stroke="#F7F3EC" stroke-width="2"/>
  <text x="744" y="582" fill="#F7F3EC" font-family="Arial, Helvetica, sans-serif" font-size="16">Account-based repeat use</text>

  <line x1="588" y1="736" x2="548" y2="736" stroke="#F7F3EC" stroke-width="2"/>
  <text x="394" y="742" fill="#F7F3EC" font-family="Arial, Helvetica, sans-serif" font-size="16">Retention logic</text>

  <rect x="72" y="982" width="468" height="190" fill="#2F2F2F" stroke="#F7F3EC" stroke-width="2"/>
  <rect x="540" y="982" width="468" height="190" fill="#B8622D" stroke="#F7F3EC" stroke-width="2"/>

  <text x="116" y="1068" fill="#F7F3EC" font-family="Arial, Helvetica, sans-serif" font-size="18" font-weight="700">
    <tspan x="116" dy="0">Dive deeper into</tspan>
    <tspan x="116" dy="26">the analysis</tspan>
  </text>

  <text x="654" y="1070" fill="#F7F3EC" font-family="Arial, Helvetica, sans-serif" font-size="18" font-weight="700">visit bewama.com</text>
  <line x1="654" y1="1078" x2="819" y2="1078" stroke="#F7F3EC" stroke-width="2"/>

  <text x="540" y="1218" text-anchor="middle" fill="#F7F3EC" font-family="Arial, Helvetica, sans-serif" font-size="18" font-weight="700">Bewama Case Study</text>
  <text x="540" y="1248" text-anchor="middle" fill="#F7F3EC" font-family="Arial, Helvetica, sans-serif" font-size="14" letter-spacing="1.5">ROTSI INSIGHTS AND ANALYSIS</text>
</svg>
