<svg width="1440" height="900" viewBox="0 0 1440 900" fill="none" xmlns="http://www.w3.org/2000/svg">
  <rect width="1440" height="900" fill="#FBFAF8"/>
  <rect x="108" y="92" width="1224" height="716" rx="34" fill="#FFFFFF" stroke="#E8E2DA" stroke-width="3"/>
  <rect x="164" y="150" width="264" height="600" rx="24" fill="#F7F4EF"/>
  <rect x="478" y="150" width="798" height="156" rx="24" fill="#111111"/>
  <rect x="478" y="350" width="374" height="400" rx="24" fill="#F7F4EF"/>
  <rect x="902" y="350" width="374" height="400" rx="24" fill="#F7F4EF"/>
  <circle cx="220" cy="210" r="28" fill="#C7A27C"/>
  <rect x="266" y="191" width="112" height="16" rx="8" fill="#111111"/>
  <rect x="266" y="220" width="78" height="12" rx="6" fill="#666666"/>
  <rect x="198" y="296" width="184" height="42" rx="12" fill="#FFFFFF" stroke="#E8E2DA" stroke-width="2"/>
  <rect x="198" y="366" width="184" height="42" rx="12" fill="#FFFFFF" stroke="#E8E2DA" stroke-width="2"/>
  <rect x="198" y="436" width="184" height="42" rx="12" fill="#FFFFFF" stroke="#E8E2DA" stroke-width="2"/>
  <rect x="198" y="506" width="184" height="42" rx="12" fill="#FFFFFF" stroke="#E8E2DA" stroke-width="2"/>
  <rect x="198" y="640" width="184" height="68" rx="16" fill="#111111"/>
  <rect x="536" y="198" width="248" height="22" rx="11" fill="#FFFFFF"/>
  <rect x="536" y="240" width="424" height="14" rx="7" fill="#FFFFFF" fill-opacity="0.58"/>
  <rect x="1012" y="198" width="176" height="58" rx="16" fill="#C7A27C"/>
  <rect x="528" y="408" width="274" height="58" rx="16" fill="#FFFFFF" stroke="#E8E2DA" stroke-width="2"/>
  <rect x="528" y="500" width="274" height="58" rx="16" fill="#FFFFFF" stroke="#E8E2DA" stroke-width="2"/>
  <rect x="528" y="592" width="274" height="58" rx="16" fill="#FFFFFF" stroke="#E8E2DA" stroke-width="2"/>
  <circle cx="568" cy="437" r="14" fill="#C7A27C"/>
  <circle cx="568" cy="529" r="14" fill="#C7A27C"/>
  <circle cx="568" cy="621" r="14" fill="#C7A27C"/>
  <rect x="604" y="424" width="126" height="12" rx="6" fill="#111111"/>
  <rect x="604" y="446" width="88" height="10" rx="5" fill="#666666"/>
  <rect x="604" y="516" width="142" height="12" rx="6" fill="#111111"/>
  <rect x="604" y="538" width="104" height="10" rx="5" fill="#666666"/>
  <rect x="604" y="608" width="132" height="12" rx="6" fill="#111111"/>
  <rect x="604" y="630" width="94" height="10" rx="5" fill="#666666"/>
  <path d="M966 650C1008 560 1065 500 1122 428C1159 382 1214 386 1231 440C1245 486 1214 554 1170 604C1122 658 1033 703 966 650Z" fill="#FFFFFF" stroke="#E8E2DA" stroke-width="3"/>
  <path d="M1008 620C1050 600 1084 572 1112 538C1142 502 1167 460 1200 434" stroke="#C7A27C" stroke-width="10" stroke-linecap="round"/>
  <circle cx="1052" cy="530" r="30" fill="#111111"/>
  <circle cx="1158" cy="488" r="24" fill="#C7A27C"/>
  <rect x="960" y="408" width="214" height="18" rx="9" fill="#111111"/>
  <rect x="960" y="446" width="244" height="12" rx="6" fill="#666666"/>
  <rect x="960" y="472" width="176" height="12" rx="6" fill="#666666"/>
  <text x="536" y="719" fill="#111111" font-family="Inter, Arial, sans-serif" font-size="34" font-weight="800">TENA CRM</text>
  <text x="960" y="719" fill="#111111" font-family="Inter, Arial, sans-serif" font-size="28" font-weight="800">BOOKINGS + RETENTION</text>
</svg>
