<svg viewBox="0 0 1200 820" fill="none" xmlns="http://www.w3.org/2000/svg">
  <rect width="1200" height="820" fill="#F8FAFC"/>
  <rect x="56" y="56" width="1088" height="708" fill="white" stroke="#D6DEE8"/>
  <rect x="112" y="108" width="256" height="36" fill="#0F172A"/>
  <rect x="112" y="176" width="212" height="16" fill="#D6A540"/>
  <rect x="112" y="224" width="392" height="16" fill="#CBD5E1"/>
  <rect x="112" y="256" width="430" height="16" fill="#CBD5E1"/>
  <rect x="112" y="340" width="308" height="312" rx="24" fill="#F8FAFC" stroke="#D6DEE8"/>
  <rect x="468" y="340" width="308" height="312" rx="24" fill="#F8FAFC" stroke="#D6DEE8"/>
  <rect x="824" y="340" width="264" height="312" rx="24" fill="#0F172A"/>
  <rect x="148" y="384" width="128" height="12" fill="#D6A540"/>
  <rect x="148" y="430" width="208" height="12" fill="#CBD5E1"/>
  <rect x="148" y="458" width="184" height="12" fill="#CBD5E1"/>
  <rect x="148" y="530" width="96" height="32" fill="#0F172A"/>
  <rect x="504" y="384" width="128" height="12" fill="#D6A540"/>
  <rect x="504" y="430" width="216" height="12" fill="#CBD5E1"/>
  <rect x="504" y="458" width="192" height="12" fill="#CBD5E1"/>
  <rect x="504" y="522" width="120" height="88" rx="44" stroke="#0F172A" stroke-width="12"/>
  <rect x="864" y="396" width="112" height="12" fill="#D6A540"/>
  <rect x="864" y="446" width="168" height="12" fill="#94A3B8"/>
  <rect x="864" y="474" width="144" height="12" fill="#94A3B8"/>
  <rect x="864" y="554" width="132" height="34" fill="white"/>
</svg>
